<mxfile host="app.diagrams.net" modified="2022-11-14T09:26:33.389Z" agent="5.0 (Windows NT 10.0; Win64; x64) AppleWebKit/537.36 (KHTML, like Gecko) Chrome/107.0.0.0 Safari/537.36 Edg/107.0.1418.35" etag="XIMwbXepWeHWdk362rk9" version="20.5.3" type="github">
  <diagram id="eGa6kZypNFk1xiro9cJL" name="第 1 页">
    <mxGraphModel dx="1422" dy="762" grid="1" gridSize="10" guides="1" tooltips="1" connect="1" arrows="1" fold="1" page="1" pageScale="1" pageWidth="827" pageHeight="1169" math="0" shadow="0">
      <root>
        <mxCell id="0" />
        <mxCell id="1" parent="0" />
        <mxCell id="wJt2mAiw7tjtH_5p5IIy-1" value="&lt;font style=&quot;font-size: 18px;&quot;&gt;size&lt;/font&gt;" style="rounded=0;whiteSpace=wrap;html=1;fillColor=#dae8fc;strokeColor=#6c8ebf;" vertex="1" parent="1">
          <mxGeometry x="221" y="270" width="90" height="60" as="geometry" />
        </mxCell>
        <mxCell id="wJt2mAiw7tjtH_5p5IIy-2" value="&lt;font style=&quot;font-size: 18px;&quot;&gt;1&lt;/font&gt;" style="rounded=0;whiteSpace=wrap;html=1;fillColor=#e1d5e7;strokeColor=#9673a6;" vertex="1" parent="1">
          <mxGeometry x="311" y="270" width="15" height="60" as="geometry" />
        </mxCell>
        <mxCell id="wJt2mAiw7tjtH_5p5IIy-4" value="&lt;font style=&quot;font-size: 18px;&quot;&gt;1&lt;/font&gt;" style="rounded=0;whiteSpace=wrap;html=1;fillColor=#f5f5f5;strokeColor=#666666;fontColor=#333333;" vertex="1" parent="1">
          <mxGeometry x="326" y="270" width="15" height="60" as="geometry" />
        </mxCell>
        <mxCell id="wJt2mAiw7tjtH_5p5IIy-5" value="&lt;font style=&quot;font-size: 18px;&quot;&gt;user space&lt;/font&gt;" style="rounded=0;whiteSpace=wrap;html=1;fillColor=#d5e8d4;strokeColor=#82b366;" vertex="1" parent="1">
          <mxGeometry x="341" y="270" width="180" height="60" as="geometry" />
        </mxCell>
        <mxCell id="wJt2mAiw7tjtH_5p5IIy-10" value="&lt;font style=&quot;font-size: 18px;&quot;&gt;size&lt;/font&gt;" style="rounded=0;whiteSpace=wrap;html=1;fillColor=#dae8fc;strokeColor=#6c8ebf;" vertex="1" parent="1">
          <mxGeometry x="521" y="270" width="90" height="60" as="geometry" />
        </mxCell>
        <mxCell id="wJt2mAiw7tjtH_5p5IIy-11" value="&lt;font style=&quot;font-size: 18px;&quot;&gt;0&lt;/font&gt;" style="rounded=0;whiteSpace=wrap;html=1;fillColor=#e1d5e7;strokeColor=#9673a6;" vertex="1" parent="1">
          <mxGeometry x="611" y="270" width="15" height="60" as="geometry" />
        </mxCell>
        <mxCell id="wJt2mAiw7tjtH_5p5IIy-12" value="&lt;font style=&quot;font-size: 18px;&quot;&gt;1&lt;/font&gt;" style="rounded=0;whiteSpace=wrap;html=1;fillColor=#f5f5f5;fontColor=#333333;strokeColor=#666666;" vertex="1" parent="1">
          <mxGeometry x="626" y="270" width="15" height="60" as="geometry" />
        </mxCell>
        <mxCell id="wJt2mAiw7tjtH_5p5IIy-13" value="&lt;span style=&quot;font-size: 18px;&quot;&gt;.......&lt;/span&gt;" style="rounded=0;whiteSpace=wrap;html=1;fillColor=#d5e8d4;strokeColor=#82b366;" vertex="1" parent="1">
          <mxGeometry x="641" y="270" width="180" height="60" as="geometry" />
        </mxCell>
        <mxCell id="wJt2mAiw7tjtH_5p5IIy-14" value="&lt;font style=&quot;font-size: 18px;&quot;&gt;size&lt;/font&gt;" style="rounded=0;whiteSpace=wrap;html=1;fillColor=#dae8fc;strokeColor=#6c8ebf;" vertex="1" parent="1">
          <mxGeometry x="941" y="270" width="90" height="60" as="geometry" />
        </mxCell>
        <mxCell id="wJt2mAiw7tjtH_5p5IIy-15" value="&lt;font style=&quot;font-size: 18px;&quot;&gt;1&lt;/font&gt;" style="rounded=0;whiteSpace=wrap;html=1;fillColor=#e1d5e7;strokeColor=#9673a6;" vertex="1" parent="1">
          <mxGeometry x="1031" y="270" width="15" height="60" as="geometry" />
        </mxCell>
        <mxCell id="wJt2mAiw7tjtH_5p5IIy-16" value="&lt;font style=&quot;font-size: 18px;&quot;&gt;0&lt;/font&gt;" style="rounded=0;whiteSpace=wrap;html=1;fillColor=#f5f5f5;fontColor=#333333;strokeColor=#666666;" vertex="1" parent="1">
          <mxGeometry x="1046" y="270" width="15" height="60" as="geometry" />
        </mxCell>
        <mxCell id="wJt2mAiw7tjtH_5p5IIy-17" value="&lt;font style=&quot;font-size: 18px;&quot;&gt;user space&lt;/font&gt;" style="rounded=0;whiteSpace=wrap;html=1;fillColor=#d5e8d4;strokeColor=#82b366;" vertex="1" parent="1">
          <mxGeometry x="1061" y="270" width="180" height="60" as="geometry" />
        </mxCell>
        <mxCell id="wJt2mAiw7tjtH_5p5IIy-23" value="LEFT_SIZE" style="rounded=0;whiteSpace=wrap;html=1;fontSize=18;fillColor=#f8cecc;strokeColor=#b85450;" vertex="1" parent="1">
          <mxGeometry x="821" y="270" width="120" height="60" as="geometry" />
        </mxCell>
        <mxCell id="wJt2mAiw7tjtH_5p5IIy-24" value="" style="shape=curlyBracket;whiteSpace=wrap;html=1;rounded=1;labelPosition=left;verticalLabelPosition=middle;align=right;verticalAlign=middle;fontSize=18;direction=south;" vertex="1" parent="1">
          <mxGeometry x="941" y="230" width="300" height="40" as="geometry" />
        </mxCell>
        <mxCell id="wJt2mAiw7tjtH_5p5IIy-25" value="used block" style="text;html=1;align=center;verticalAlign=middle;resizable=0;points=[];autosize=1;strokeColor=none;fillColor=none;fontSize=18;" vertex="1" parent="1">
          <mxGeometry x="316" y="190" width="110" height="40" as="geometry" />
        </mxCell>
        <mxCell id="wJt2mAiw7tjtH_5p5IIy-26" value="" style="shape=curlyBracket;whiteSpace=wrap;html=1;rounded=1;labelPosition=left;verticalLabelPosition=middle;align=right;verticalAlign=middle;fontSize=18;direction=south;" vertex="1" parent="1">
          <mxGeometry x="521" y="230" width="420" height="40" as="geometry" />
        </mxCell>
        <mxCell id="wJt2mAiw7tjtH_5p5IIy-27" value="free block" style="text;html=1;align=center;verticalAlign=middle;resizable=0;points=[];autosize=1;strokeColor=none;fillColor=none;fontSize=18;" vertex="1" parent="1">
          <mxGeometry x="681" y="190" width="100" height="40" as="geometry" />
        </mxCell>
        <mxCell id="wJt2mAiw7tjtH_5p5IIy-28" value="" style="shape=curlyBracket;whiteSpace=wrap;html=1;rounded=1;labelPosition=left;verticalLabelPosition=middle;align=right;verticalAlign=middle;fontSize=18;direction=south;" vertex="1" parent="1">
          <mxGeometry x="221" y="230" width="300" height="40" as="geometry" />
        </mxCell>
        <mxCell id="wJt2mAiw7tjtH_5p5IIy-29" value="used block" style="text;html=1;align=center;verticalAlign=middle;resizable=0;points=[];autosize=1;strokeColor=none;fillColor=none;fontSize=18;" vertex="1" parent="1">
          <mxGeometry x="1036" y="190" width="110" height="40" as="geometry" />
        </mxCell>
        <mxCell id="wJt2mAiw7tjtH_5p5IIy-31" value="current block use flag" style="whiteSpace=wrap;html=1;rounded=1;arcSize=50;align=center;verticalAlign=middle;strokeWidth=1;autosize=1;spacing=4;treeFolding=1;treeMoving=1;newEdgeStyle={&quot;edgeStyle&quot;:&quot;entityRelationEdgeStyle&quot;,&quot;startArrow&quot;:&quot;none&quot;,&quot;endArrow&quot;:&quot;none&quot;,&quot;segment&quot;:10,&quot;curved&quot;:1};fontSize=18;fillColor=#e1d5e7;strokeColor=#9673a6;" vertex="1" parent="1">
          <mxGeometry x="71" y="380" width="220" height="40" as="geometry" />
        </mxCell>
        <mxCell id="wJt2mAiw7tjtH_5p5IIy-32" value="" style="edgeStyle=entityRelationEdgeStyle;startArrow=none;endArrow=none;segment=10;curved=1;rounded=0;fontSize=18;exitX=0.5;exitY=1;exitDx=0;exitDy=0;" edge="1" target="wJt2mAiw7tjtH_5p5IIy-31" parent="1" source="wJt2mAiw7tjtH_5p5IIy-2">
          <mxGeometry relative="1" as="geometry">
            <mxPoint x="261" y="440" as="sourcePoint" />
          </mxGeometry>
        </mxCell>
        <mxCell id="wJt2mAiw7tjtH_5p5IIy-34" value="previous&amp;nbsp;block use flag" style="whiteSpace=wrap;html=1;rounded=1;arcSize=50;align=center;verticalAlign=middle;strokeWidth=1;autosize=1;spacing=4;treeFolding=1;treeMoving=1;newEdgeStyle={&quot;edgeStyle&quot;:&quot;entityRelationEdgeStyle&quot;,&quot;startArrow&quot;:&quot;none&quot;,&quot;endArrow&quot;:&quot;none&quot;,&quot;segment&quot;:10,&quot;curved&quot;:1};fontSize=18;fillColor=#f5f5f5;fontColor=#333333;strokeColor=#666666;" vertex="1" parent="1">
          <mxGeometry x="361" y="380" width="230" height="40" as="geometry" />
        </mxCell>
        <mxCell id="wJt2mAiw7tjtH_5p5IIy-35" value="" style="edgeStyle=entityRelationEdgeStyle;startArrow=none;endArrow=none;segment=10;curved=1;rounded=0;fontSize=18;exitX=0.5;exitY=1;exitDx=0;exitDy=0;" edge="1" target="wJt2mAiw7tjtH_5p5IIy-34" parent="1" source="wJt2mAiw7tjtH_5p5IIy-4">
          <mxGeometry relative="1" as="geometry">
            <mxPoint x="333.5" y="360" as="sourcePoint" />
          </mxGeometry>
        </mxCell>
      </root>
    </mxGraphModel>
  </diagram>
</mxfile>
